<?xml version="1.0" encoding="utf-8"?>
<!-- Generator: Adobe Illustrator 21.0.0, SVG Export Plug-In . SVG Version: 6.00 Build 0)  -->
<svg version="1.1" id="Layer_1" xmlns="http://www.w3.org/2000/svg" xmlns:xlink="http://www.w3.org/1999/xlink" x="0px" y="0px"
	 viewBox="0 0 113.4 226.8" style="enable-background:new 0 0 113.4 226.8;" xml:space="preserve">
<style type="text/css">
	.st0{fill:#231F20;}
</style>
<title>icon</title>
<path class="st0" d="M105.2,46.5c0,0,0-0.1-0.1-0.1c0-0.1-0.1-0.1-0.1-0.2c0,0,0,0-0.1-0.1L57.1,16.9c-0.2-0.1-0.5-0.1-0.8,0
	L8.5,46.2c0,0,0,0-0.1,0.1c-0.1,0-0.1,0.1-0.1,0.2c0,0-0.1,0.1-0.1,0.1c-0.1,0.1-0.1,0.2-0.1,0.3v74.3c0,0.4,0.3,0.8,0.8,0.8
	c0.4,0,0.8-0.3,0.8-0.8v-73l46.7,25.4c0.2,0.1,0.5,0.1,0.7,0l46.7-25.4v73c0,0.4,0.3,0.8,0.8,0.8s0.8-0.3,0.8-0.8l0,0V46.9
	C105.3,46.7,105.3,46.6,105.2,46.5z M56.7,72L10.4,46.8l46.3-28.4L103,46.8L56.7,72z"/>
<path class="st0" d="M27.7,122.8c-0.1-0.4-0.6-0.6-1-0.4c0,0,0,0,0,0l-10.6,4.2c-0.3,0.1-0.5,0.4-0.5,0.7c0,0,0,0.1,0,0.1
	c0,0,0,0,0,0.1l1.8,11.2c0.1,0.4,0.4,0.6,0.7,0.6h0.1c0.4-0.1,0.7-0.5,0.6-0.9l-1.6-9.7l39,20l0,0c0.2,0.1,0.4,0.1,0.6,0l0,0
	l39.4-20.2l-1.5,9.1c-0.1,0.4,0.2,0.8,0.6,0.9h0.1c0.4,0,0.7-0.3,0.7-0.6l1.7-10.6c0-0.1,0-0.1,0-0.2l0,0c0-0.3-0.2-0.5-0.5-0.6
	l-10-3.9c-0.4-0.2-0.8,0-1,0.4c-0.2,0.4,0,0.8,0.4,1l8.4,3.3l-38.1,19.5V87.2l7.8,6.1c0.3,0.3,0.8,0.3,1.1-0.1s0.3-0.8-0.1-1.1
	c0,0-0.1,0-0.1-0.1l-9-7L57,85H57c-0.2-0.1-0.4-0.1-0.5,0h-0.1l-0.1,0.1l-9,7c-0.3,0.2-0.4,0.7-0.2,1c0.2,0.3,0.7,0.4,1,0.2
	c0,0,0.1,0,0.1-0.1l7.8-6.1v59.5l-37.7-19.3l9.1-3.6C27.6,123.6,27.8,123.2,27.7,122.8z"/>
<polygon class="st0" points="20.1,191.1 15.5,191.1 15.5,214.9 30.9,214.9 30.9,210.7 20.1,210.7 "/>
<path class="st0" d="M40.1,197.3c-2.9,0-4.6,0.5-6.3,2.4l2.8,2.7c0.8-1,2.1-1.5,3.4-1.4c2.3,0,3.2,0.8,3.2,2.7v0.9H39
	c-4,0-5.9,2.3-5.9,5c0,1.4,0.5,2.8,1.4,3.9c1.2,1.1,2.8,1.6,4.4,1.5c1.6,0.1,3.2-0.5,4.3-1.7v1.5h4.2v-11.4
	C47.5,199.4,44.9,197.3,40.1,197.3z M43.1,208.5c0.1,0.8-0.1,1.6-0.6,2.2c-0.7,0.7-1.7,1-2.7,0.8c-1.7,0-2.5-0.8-2.5-2s0.9-2,2.4-2
	h3.4L43.1,208.5z"/>
<path class="st0" d="M56.4,199.2v-1.7h-4.2v17.4h4.3v-10.5c-0.2-1.6,1-3,2.6-3.2c1-0.1,1.9,0.3,2.5,1l3.3-3.3
	c-1.1-1.1-2.6-1.7-4.1-1.6C59.1,197.3,57.5,197.9,56.4,199.2z"/>
<path class="st0" d="M75.8,199.1c-1-1.3-2.6-1.9-4.2-1.8c-1.5-0.1-3,0.5-4.2,1.5c-1.6,1.6-1.8,3.8-1.8,6.9s0.1,5.3,1.8,6.9
	c1.1,1,2.6,1.6,4.1,1.5c1.6,0.1,3.1-0.5,4.1-1.7v1.8c0.2,1.8-1.1,3.4-2.9,3.6c-0.2,0-0.4,0-0.6,0c-1.3,0.1-2.5-0.4-3.4-1.3l-2.7,2.7
	c1.7,1.6,4,2.5,6.3,2.3c4.7,0,7.7-3,7.7-7.2v-16.8h-4.2V199.1z M72.8,210.2c-2.6,0-2.8-2.2-2.8-4.5s0.3-4.5,2.8-4.5s2.9,2.2,2.9,4.5
	S75.3,210.2,72.8,210.2z"/>
<path class="st0" d="M91.6,197.3c-4.5,0-7.6,3.2-7.6,8.9c0,7,3.9,8.9,8,8.9c2.5,0.1,4.9-0.9,6.6-2.7l-2.6-2.6
	c-1,1.1-2.4,1.7-3.9,1.6c-2,0.1-3.7-1.4-3.8-3.4c0-0.2,0-0.3,0-0.5h10.9v-1.9C99.1,200.8,96.4,197.3,91.6,197.3z M88.3,204.6
	c0-0.6,0.1-1.3,0.4-1.9c0.8-1.6,2.7-2.3,4.3-1.5c0.6,0.3,1.2,0.8,1.5,1.5c0.3,0.6,0.4,1.2,0.4,1.9H88.3z"/>
</svg>
