<svg width="16" height="22" viewBox="0 0 16 22" xmlns="http://www.w3.org/2000/svg">
    <path d="M3.333 7.667a3.334 3.334 0 1 1 0 6.667 3.334 3.334 0 0 1 0-6.667zm7.415 8.043a2.63 2.63 0 0 0-.081.623 2.667 2.667 0 1 0 2.666-2.666 2.65 2.65 0 0 0-1.956.867l-3.659-1.951c-.153.424-.366.819-.629 1.176l3.659 1.951zM16 5.667a2.667 2.667 0 0 0-5.333 0c0 .216.032.422.081.623L7.089 8.241c.264.357.476.752.629 1.176l3.659-1.951a2.65 2.65 0 0 0 1.956.867A2.667 2.667 0 0 0 16 5.667z" fill="#999" fill-rule="nonzero"/>
</svg>
