<svg id="Layer_1" data-name="Layer 1" xmlns="http://www.w3.org/2000/svg" viewBox="0 0 40 40"><defs><style>.cls-1{fill:#fff;}</style></defs><title>아이콘</title><path d="M40,10.44V29.56A10.45,10.45,0,0,1,29.56,40H10.44A10.45,10.45,0,0,1,0,29.56V10.44A10.45,10.45,0,0,1,10.44,0H29.56A10.45,10.45,0,0,1,40,10.44Z"/><path class="cls-1" d="M6.69,22.82v.78H4.36v-11H6.69v4.1a2.58,2.58,0,0,1,2.19-1,3.72,3.72,0,0,1,3.72,4,3.72,3.72,0,0,1-3.72,4A2.58,2.58,0,0,1,6.69,22.82Zm3.64-3a1.83,1.83,0,0,0-1.81-2,1.85,1.85,0,0,0-1.87,2,1.85,1.85,0,0,0,1.87,2A1.83,1.83,0,0,0,10.33,19.78Z"/><path class="cls-1" d="M26.5,20.22a3.92,3.92,0,0,1-4.09,4,3.92,3.92,0,0,1-4.09-4,3.92,3.92,0,0,1,4.09-4A3.92,3.92,0,0,1,26.5,20.22Zm-5.92,0a1.84,1.84,0,1,0,3.66,0,1.84,1.84,0,1,0-3.66,0Z"/><path class="cls-1" d="M31.37,25.18s1.87,0,2-1.64v-.78a2.47,2.47,0,0,1-2.1.93A3.51,3.51,0,0,1,27.73,20a3.54,3.54,0,0,1,3.57-3.78,2.48,2.48,0,0,1,2.1.93v-.75h2.23v7.2c0,3.37-4.27,4-4.27,4ZM33.44,20a1.75,1.75,0,0,0-1.79-1.88A1.72,1.72,0,0,0,29.91,20a1.72,1.72,0,0,0,1.74,1.88A1.75,1.75,0,0,0,33.44,20Z"/><path class="cls-1" d="M13.55,12.43v2.92s1.07.15,1.07,1.75v6.69h2.67v-8A3.54,3.54,0,0,0,13.55,12.43Z"/></svg>