<svg id="Layer_1" data-name="Layer 1" xmlns="http://www.w3.org/2000/svg" viewBox="0 0 127.56 226.77"><defs><style>.cls-1{fill:#231f20;}</style></defs><title>icon</title><path class="cls-1" d="M25.21,127.07a.75.75,0,0,0,.75-.75V67.69L63.42,88.08a.75.75,0,0,0,.72,0L101.6,67.69v58.63a.75.75,0,0,0,1.5,0V66.44a.73.73,0,0,0-.08-.33A.71.71,0,0,0,103,66a.73.73,0,0,0-.15-.16s0,0-.06-.06L64.17,42.18a.75.75,0,0,0-.78,0L24.81,65.79s0,0-.06.06a.73.73,0,0,0-.15.16.71.71,0,0,0-.07.1.73.73,0,0,0-.08.33v59.88A.75.75,0,0,0,25.21,127.07ZM63.78,43.7,100.85,66.4,63.78,86.56,26.71,66.4Z"/><path class="cls-1" d="M94.81,131a.74.74,0,0,0-.46-.65l-10-3.94a.75.75,0,1,0-.55,1.4l8.61,3.38L64.53,146.63V101.36l7.86,6.13a.75.75,0,1,0,.92-1.18l-9.07-7.07-.11-.06-.08,0a.74.74,0,0,0-.54,0l-.08,0-.11.06-9.07,7.07a.75.75,0,1,0,.92,1.18L63,101.36v45.27L35.29,131.38l9.18-3.6a.75.75,0,1,0-.55-1.4l-10.66,4.19a.74.74,0,0,0-.46.6.73.73,0,0,0,0,.1.72.72,0,0,0,0,.11l1.82,11.3a.75.75,0,0,0,.74.63h.12a.75.75,0,0,0,.62-.86l-1.57-9.78,28.89,15.89h0a.68.68,0,0,0,.66,0h0l28.93-16.07-1.46,9.05a.75.75,0,0,0,.62.86h.12a.75.75,0,0,0,.74-.63l1.69-10.48s0,0,0-.06v-.09a.71.71,0,0,0,0-.07A.72.72,0,0,0,94.81,131Z"/><polygon class="cls-1" points="16.5 203.98 10.29 191.12 5.72 191.12 5.72 214.89 10.36 214.89 10.36 201.04 14.93 210.05 18.07 210.05 22.61 201.04 22.61 214.89 27.25 214.89 27.25 191.12 22.68 191.12 16.5 203.98"/><path class="cls-1" d="M39.17,197.3c-4.51,0-7.58,3.21-7.58,8.88,0,7,3.94,8.91,8,8.91a8.28,8.28,0,0,0,6.61-2.74l-2.64-2.57a4.82,4.82,0,0,1-3.94,1.64,3.59,3.59,0,0,1-3.81-3.87H46.75v-1.94C46.75,200.84,44,197.3,39.17,197.3Zm-3.31,7.28a4.8,4.8,0,0,1,.4-1.87,3.24,3.24,0,0,1,5.81,0,4.8,4.8,0,0,1,.4,1.87Z"/><path class="cls-1" d="M60.27,199A5.21,5.21,0,0,0,56,197.3a6.06,6.06,0,0,0-4.24,1.57c-1.74,1.74-1.77,4.71-1.77,7.31s0,5.61,1.77,7.35a6.14,6.14,0,0,0,4.27,1.57,5.22,5.22,0,0,0,4.31-1.84v1.64h4.24V191.12H60.27Zm-3,12.15c-2.6,0-2.94-2.17-2.94-5s.33-5,2.94-5,3,2.14,3,5S59.91,211.19,57.3,211.19Z"/><rect class="cls-1" x="69.42" y="190.99" width="4.44" height="3.54"/><rect class="cls-1" x="69.49" y="197.5" width="4.34" height="17.39"/><path class="cls-1" d="M88.59,208a2.82,2.82,0,0,1-2.9,3.17c-1.37,0-2.87-.8-2.87-3.17V197.5H78.47v11.12a6.45,6.45,0,0,0,1.77,4.94,5.65,5.65,0,0,0,4.11,1.54,6,6,0,0,0,4.34-1.8v1.6h4.24V197.5H88.59Z"/><path class="cls-1" d="M120.47,198.83a6.07,6.07,0,0,0-4.27-1.54,6.64,6.64,0,0,0-5.21,2.2,5.39,5.39,0,0,0-4.61-2.2,6.09,6.09,0,0,0-4.34,1.8v-1.6H97.8v17.39h4.34V204.38a2.82,2.82,0,0,1,2.9-3.17c1.37,0,2.87.8,2.87,3.17v10.52h4.34V204.28a2.8,2.8,0,0,1,2.9-3.07c1.37,0,2.87.8,2.87,3.17v10.52h4.34V203.78A6.56,6.56,0,0,0,120.47,198.83Z"/></svg>