<svg id="Layer_1" data-name="Layer 1" xmlns="http://www.w3.org/2000/svg" viewBox="0 0 127.56 226.77"><defs><style>.cls-1{fill:#231f20;}</style></defs><title>icon</title><path class="cls-1" d="M40.1,134.82a.75.75,0,0,0,.75-.75V111.33l22.63,9.93a.75.75,0,0,0,.6,0l22.63-9.93v22.75a.75.75,0,0,0,1.5,0V110.17a.74.74,0,0,0,0-.25l0-.05a.74.74,0,0,0-.14-.21h0a.74.74,0,0,0-.2-.15L64.11,97.82a.75.75,0,0,0-.66,0L39.77,109.51a.74.74,0,0,0-.2.15h0a.74.74,0,0,0-.14.21l0,.05a.74.74,0,0,0,0,.25v23.91A.75.75,0,0,0,40.1,134.82Zm23.68-35.5,21.91,10.82-21.91,9.62-21.9-9.62Z"/><path class="cls-1" d="M75.55,142.83l-.72,4.48a.75.75,0,0,0,.62.86h.12a.75.75,0,0,0,.74-.63l1-5.94a.72.72,0,0,0,0-.1.72.72,0,0,0,0-.11.74.74,0,0,0-.06-.21s0,0,0,0h0a.74.74,0,0,0-.39-.35l-5.6-2.2a.75.75,0,1,0-.55,1.4l4.06,1.59-10.17,5.19V129.39L68,132.18a.75.75,0,1,0,.94-1.17l-4.69-3.78-.11-.06-.09,0a.74.74,0,0,0-.54,0l-.09,0-.11.06L58.62,131a.75.75,0,1,0,.94,1.17L63,129.39v17.38l-10.24-5.19L56.84,140a.75.75,0,1,0-.55-1.4l-5.6,2.2a.74.74,0,0,0-.39.35h0s0,0,0,0a.74.74,0,0,0-.06.2,223.16,223.16,0,0,1,0,.2l1,5.94a.75.75,0,0,0,.74.63H52a.75.75,0,0,0,.62-.86l-.72-4.48,11.51,5.83h0a.7.7,0,0,0,.63,0h0Z"/><path class="cls-1" d="M36.12,195.06a3.93,3.93,0,0,1,4,3.37h4.71c-.83-5-4.31-7.51-8.75-7.51a8.76,8.76,0,0,0-6.41,2.6c-2.4,2.4-2.34,5.38-2.34,9.48s-.07,7.08,2.34,9.48a8.76,8.76,0,0,0,6.41,2.6c4.41,0,7.91-2.54,8.75-7.51H40.12a3.93,3.93,0,0,1-4,3.37,3.84,3.84,0,0,1-3-1.24c-.9-1-1.17-2.14-1.17-6.71s.27-5.71,1.17-6.71A3.84,3.84,0,0,1,36.12,195.06Z"/><path class="cls-1" d="M58.42,208a2.82,2.82,0,0,1-2.9,3.17c-1.37,0-2.87-.8-2.87-3.17V197.5H48.3v11.12a6.45,6.45,0,0,0,1.77,4.94,5.65,5.65,0,0,0,4.11,1.54,6,6,0,0,0,4.34-1.8v1.6h4.24V197.5H58.42Z"/><path class="cls-1" d="M76.18,197.3A5.14,5.14,0,0,0,72,199v-7.91H67.64v23.77h4.21v-1.64a5.29,5.29,0,0,0,4.34,1.84,6.06,6.06,0,0,0,4.24-1.57c1.74-1.74,1.77-4.74,1.77-7.35s0-5.58-1.77-7.31A6.06,6.06,0,0,0,76.18,197.3Zm-1.27,13.89c-2.6,0-2.94-2.17-2.94-5s.33-5,2.94-5,2.94,2.14,2.94,5S77.52,211.19,74.91,211.19Z"/><path class="cls-1" d="M100.62,205.61c0-4.77-2.74-8.31-7.58-8.31-4.51,0-7.58,3.21-7.58,8.88,0,7,3.94,8.91,8,8.91a8.28,8.28,0,0,0,6.61-2.74l-2.64-2.57a4.82,4.82,0,0,1-3.94,1.64,3.59,3.59,0,0,1-3.81-3.87h10.88Zm-10.88-1a4.79,4.79,0,0,1,.4-1.87,3.24,3.24,0,0,1,5.81,0,4.8,4.8,0,0,1,.4,1.87Z"/></svg>