<svg width="60" height="60" viewBox="0 0 60 60" xmlns="http://www.w3.org/2000/svg">
    <path d="M29.465 19.73c-.652.488-1.44.75-2.253.75-1.507 0-2.262-1.84-1.202-2.9a3.77 3.77 0 0 1 2.127-1.063c1.518-.217 2.188-2.102 1.068-3.222-1.117-1.117-3.002-.45-3.222 1.072a3.775 3.775 0 0 1-1.06 2.125c-1.068 1.068-2.903.308-2.903-1.2 0-.817.262-1.602.75-2.255.925-1.235.058-3.037-1.52-3.037s-2.445 1.803-1.52 3.035c.488.65.75 1.442.75 2.252 0 1.51-1.832 2.27-2.9 1.203a3.77 3.77 0 0 1-1.063-2.125c-.22-1.52-2.102-2.188-3.222-1.07-1.117 1.12-.45 3.002 1.072 3.222.803.116 1.55.488 2.125 1.063 1.066 1.068.308 2.903-1.202 2.903-.815 0-1.6-.263-2.252-.75-1.236-.928-3.038-.06-3.038 1.517 0 1.578 1.803 2.445 3.035 1.52a3.758 3.758 0 0 1 2.252-.75c1.51 0 2.27 1.832 1.203 2.9a3.77 3.77 0 0 1-2.125 1.063c-1.52.217-2.19 2.102-1.072 3.222 1.12 1.118 3.002.45 3.222-1.072a3.763 3.763 0 0 1 1.063-2.125c1.067-1.066 2.902-.308 2.902 1.2 0 .817-.262 1.602-.75 2.255-.922 1.23-.063 3.037 1.52 3.037 1.573 0 2.448-1.8 1.52-3.038a3.716 3.716 0 0 1-.75-2.24c0-1.512 1.832-2.28 2.902-1.212a3.736 3.736 0 0 1 1.06 2.125c.22 1.52 2.103 2.19 3.223 1.072 1.118-1.117.453-3.007-1.075-3.222a3.726 3.726 0 0 1-2.113-1.055c-1.072-1.07-.314-2.907 1.195-2.907.813 0 1.598.262 2.253.75 1.227.92 3.035.06 3.035-1.523 0-1.58-1.805-2.442-3.035-1.52zM19.41 23.755a.93.93 0 1 1 0-1.857.929.929 0 0 1 0 1.857zm1.18-2.945a1.456 1.456 0 1 1 .003-2.913 1.456 1.456 0 0 1-.003 2.913zm2.745 2.783a1.234 1.234 0 1 1 1.232-1.233c0 .68-.55 1.233-1.232 1.233zm29.587 25.792A12.447 12.447 0 0 0 55 42.5C55 35.597 49.405 30 42.5 30S30 35.597 30 42.5 35.595 55 42.5 55c2.547 0 4.91-.773 6.888-2.08L56.465 60 60 56.465l-7.078-7.08zM42.5 50c-4.135 0-7.5-3.365-7.5-7.5s3.365-7.5 7.5-7.5 7.5 3.365 7.5 7.5-3.365 7.5-7.5 7.5zm-12.225 5H12.5l6.497-7.5h6.74a17.51 17.51 0 0 0 4.538 7.5zM25 42.5H0V0h55v30.275a17.582 17.582 0 0 0-5-3.563V5H5v32.5h20.738a17.39 17.39 0 0 0-.738 5z" fill="#FFF" fill-rule="nonzero" fill-opacity=".8"/>
</svg>
