<?xml version="1.0" encoding="utf-8"?>
<!-- Generator: Adobe Illustrator 21.0.0, SVG Export Plug-In . SVG Version: 6.00 Build 0)  -->
<svg version="1.1" id="Layer_1" xmlns="http://www.w3.org/2000/svg" xmlns:xlink="http://www.w3.org/1999/xlink" x="0px" y="0px"
	 viewBox="0 0 113.4 226.8" style="enable-background:new 0 0 113.4 226.8;" xml:space="preserve">
<style type="text/css">
	.st0{fill:#231F20;}
</style>
<title>icon</title>
<path class="st0" d="M33,134.8c0.4,0,0.8-0.3,0.8-0.8v-22.7l22.6,9.9c0.2,0.1,0.4,0.1,0.6,0l22.6-9.9v22.8c0,0.4,0.3,0.8,0.8,0.8
	s0.8-0.3,0.8-0.8v-23.9c0-0.1,0-0.2,0-0.2v-0.1c0-0.1-0.1-0.1-0.1-0.2l0,0c-0.1-0.1-0.1-0.1-0.2-0.2L57,97.8c-0.2-0.1-0.5-0.1-0.7,0
	l-23.7,11.7c-0.1,0-0.1,0.1-0.2,0.2l0,0c-0.1,0.1-0.1,0.1-0.1,0.2v0.1c0,0.1,0,0.2,0,0.2v23.9C32.3,134.5,32.6,134.8,33,134.8z
	 M56.7,99.3l21.9,10.8l-21.9,9.6l-21.9-9.6L56.7,99.3z"/>
<path class="st0" d="M68.5,142.8l-0.7,4.5c-0.1,0.4,0.2,0.8,0.6,0.9h0.1c0.4,0,0.7-0.3,0.7-0.6l1-5.9c0,0,0-0.1,0-0.1
	c0,0,0-0.1,0-0.1c0-0.1,0-0.1-0.1-0.2l0,0l0,0c-0.1-0.2-0.2-0.3-0.4-0.4l-5.6-2.2c-0.4-0.2-0.8,0-1,0.4c-0.2,0.4,0,0.8,0.4,1l0,0
	l4.1,1.6l-10.2,5.2v-17.4l3.4,2.8c0.3,0.3,0.8,0.2,1.1-0.1c0.3-0.3,0.2-0.8-0.1-1.1l0,0l-4.7-3.8l-0.1-0.1H57
	c-0.2-0.1-0.4-0.1-0.5,0h-0.1l-0.1,0.1l-4.7,3.8c-0.3,0.3-0.4,0.7-0.1,1.1c0.3,0.3,0.7,0.4,1.1,0.1l3.4-2.8v17.4l-10.2-5.2l4.1-1.6
	c0.4-0.2,0.6-0.6,0.4-1c-0.2-0.4-0.6-0.6-1-0.4l-5.6,2.2c-0.2,0.1-0.3,0.2-0.4,0.4l0,0l0,0c0,0.1,0,0.1-0.1,0.2c0,0.1,0,0.1,0,0.2
	l1,5.9c0.1,0.4,0.4,0.6,0.7,0.6h0c0.4-0.1,0.7-0.5,0.6-0.9l-0.7-4.5l11.5,5.8l0,0c0.2,0.1,0.4,0.1,0.6,0l0,0L68.5,142.8z"/>
<path class="st0" d="M29,195.1c2-0.1,3.7,1.4,4,3.4h4.7c-0.8-5-4.3-7.5-8.8-7.5c-2.4,0-4.7,0.9-6.4,2.6c-2.4,2.4-2.3,5.4-2.3,9.5
	s-0.1,7.1,2.3,9.5c1.7,1.7,4,2.6,6.4,2.6c4.4,0,7.9-2.5,8.8-7.5H33c-0.3,2-2,3.4-4,3.4c-1.1,0.1-2.2-0.4-3-1.2
	c-0.9-1-1.2-2.1-1.2-6.7s0.3-5.7,1.2-6.7C26.8,195.5,27.9,195,29,195.1z"/>
<path class="st0" d="M51.3,208c0.2,1.5-0.9,3-2.4,3.1c-0.2,0-0.3,0-0.5,0c-1.4,0-2.9-0.8-2.9-3.2v-10.5h-4.3v11.1
	c-0.1,1.8,0.5,3.6,1.8,4.9c1.1,1,2.6,1.6,4.1,1.5c1.6,0,3.2-0.6,4.3-1.8v1.6h4.2v-17.4h-4.3V208z"/>
<path class="st0" d="M69.1,197.3c-1.6-0.1-3.1,0.5-4.2,1.7v-7.9h-4.4v23.8h4.2v-1.6c1.1,1.3,2.7,1.9,4.3,1.8c1.6,0,3.1-0.5,4.2-1.6
	c1.7-1.7,1.8-4.7,1.8-7.4s0-5.6-1.8-7.3C72.2,197.8,70.7,197.2,69.1,197.3z M67.8,211.2c-2.6,0-2.9-2.2-2.9-5s0.3-5,2.9-5
	s2.9,2.1,2.9,5S70.4,211.2,67.8,211.2z"/>
<path class="st0" d="M93.5,205.6c0-4.8-2.7-8.3-7.6-8.3c-4.5,0-7.6,3.2-7.6,8.9c0,7,3.9,8.9,8,8.9c2.5,0.1,4.9-0.9,6.6-2.7l-2.6-2.6
	c-1,1.1-2.4,1.7-3.9,1.6c-2,0.1-3.7-1.4-3.8-3.4c0-0.2,0-0.3,0-0.5h10.9L93.5,205.6z M82.7,204.6c0-0.6,0.1-1.3,0.4-1.9
	c0.8-1.6,2.7-2.3,4.3-1.5c0.6,0.3,1.2,0.8,1.5,1.5c0.3,0.6,0.4,1.2,0.4,1.9H82.7z"/>
</svg>
