<svg id="Layer_1" data-name="Layer 1" xmlns="http://www.w3.org/2000/svg" viewBox="0 0 127.56 226.77"><defs><style>.cls-1{fill:#231f20;}</style></defs><title>icon</title><path class="cls-1" d="M34.6,135.82a.75.75,0,0,0,.75-.75V89.61l28.08,14.63a.75.75,0,0,0,.69,0L92.21,89.61v45.47a.75.75,0,0,0,1.5,0V88.4h0a.71.71,0,0,0,0-.14.75.75,0,0,0,0-.13.73.73,0,0,0-.3-.39L64.16,70.62a.75.75,0,0,0-.76,0L34.22,87.72a.73.73,0,0,0-.3.39.75.75,0,0,0,0,.13.71.71,0,0,0,0,.14h0v46.67A.75.75,0,0,0,34.6,135.82ZM63.78,72.13l27.63,16.2-27.63,14.4L36.15,88.33Z"/><path class="cls-1" d="M87.45,135.38a.74.74,0,0,0-.46-.64l-7.27-2.85a.75.75,0,0,0-.55,1.4L85,135.57,64.53,146.64v-32l5.36,4.18a.75.75,0,1,0,.92-1.18l-6.57-5.12-.11-.06-.08,0a.74.74,0,0,0-.54,0l-.08,0-.11.06-6.57,5.13a.75.75,0,1,0,.92,1.18L63,114.61v32L43.76,135.42,50,133a.75.75,0,1,0-.55-1.4l-7.72,3a.74.74,0,0,0-.17.1h0a.74.74,0,0,0-.29.48,226.36,226.36,0,0,1,0,.22l1.32,8.19a.75.75,0,0,0,.74.63h.12a.75.75,0,0,0,.62-.86L43,136.74,63.4,148.55h0a.68.68,0,0,0,.67,0h0l21.58-11.69-1,6.16a.75.75,0,0,0,.62.86h.12a.75.75,0,0,0,.74-.63l1.22-7.57h0l0-.13a.7.7,0,0,0,0-.08A.72.72,0,0,0,87.45,135.38Z"/><path class="cls-1" d="M31.27,201l-2.8-.4a4.09,4.09,0,0,1-2.2-.94,2.29,2.29,0,0,1-.7-1.7c0-1.64,1.2-3,3.67-3a6.61,6.61,0,0,1,4.87,1.64l2.94-2.9c-2-2-4.41-2.77-7.68-2.77-5.14,0-8.28,3-8.28,7.21a6.28,6.28,0,0,0,1.7,4.67,8.06,8.06,0,0,0,4.61,2l2.87.4a3.54,3.54,0,0,1,2.1.83,2.65,2.65,0,0,1,.74,2c0,1.9-1.47,2.94-4.21,2.94a7.78,7.78,0,0,1-5.74-2l-3,3c2.34,2.37,5.07,3.14,8.68,3.14,5,0,8.81-2.6,8.81-7.21a6.66,6.66,0,0,0-1.84-5A7.86,7.86,0,0,0,31.27,201Z"/><path class="cls-1" d="M60.09,197.3a6.63,6.63,0,0,0-5.21,2.2,5.39,5.39,0,0,0-4.61-2.2,6.09,6.09,0,0,0-4.34,1.8v-1.6H41.69v17.39H46V204.38a2.82,2.82,0,0,1,2.91-3.17c1.37,0,2.87.8,2.87,3.17v10.52h4.34V204.28a2.8,2.8,0,0,1,2.9-3.07c1.37,0,2.87.8,2.87,3.17v10.52h4.34V203.78a6.56,6.56,0,0,0-1.9-4.94A6.07,6.07,0,0,0,60.09,197.3Z"/><path class="cls-1" d="M76.68,197.3c-2.91,0-4.57.53-6.28,2.4l2.77,2.7A3.73,3.73,0,0,1,76.52,201c2.3,0,3.24.83,3.24,2.74v.87H75.65c-4,0-5.94,2.27-5.94,5a5.57,5.57,0,0,0,1.44,3.91,5.93,5.93,0,0,0,4.44,1.54,5.28,5.28,0,0,0,4.27-1.67v1.5h4.24V203.44C84.09,199.37,81.56,197.3,76.68,197.3Zm3.07,11.18a2.86,2.86,0,0,1-.63,2.2,3.44,3.44,0,0,1-2.74.83c-1.7,0-2.5-.8-2.5-2s.87-2,2.44-2h3.44Z"/><path class="cls-1" d="M92.94,209.65V191.12H88.6v18.8a4.73,4.73,0,0,0,5.07,5h2.47v-3.67H94.48C93.38,211.22,92.94,210.69,92.94,209.65Z"/><path class="cls-1" d="M105.33,211.22c-1.1,0-1.54-.53-1.54-1.57V191.12H99.46v18.8a4.73,4.73,0,0,0,5.07,5H107v-3.67Z"/></svg>