<svg width="70" height="64" viewBox="0 0 70 64" xmlns="http://www.w3.org/2000/svg">
    <path d="M49.583 28.131v-6.679c-3.412-1.216-5.562-1.555-6.65-4.174-1.088-2.625.205-4.41 1.75-7.656L39.964 4.9c-3.223 1.531-5.025 2.84-7.659 1.75C29.68 5.562 29.339 3.395 28.131 0h-6.679c-1.202 3.378-1.546 5.562-4.174 6.65h-.003C14.65 7.74 12.871 6.446 9.62 4.9L4.903 9.622c1.537 3.238 2.838 5.028 1.75 7.656C5.559 19.906 3.378 20.25 0 21.452v6.676c3.369 1.202 5.562 1.55 6.65 4.174 1.097 2.648-.236 4.474-1.75 7.656l4.72 4.722c3.228-1.53 5.028-2.84 7.655-1.75h.003c2.625 1.088 2.97 3.261 4.174 6.65h6.676c1.202-3.377 1.546-5.556 4.192-6.655h.002c2.608-1.085 4.378.207 7.64 1.755l4.718-4.722c-1.53-3.228-2.84-5.025-1.752-7.656 1.09-2.622 3.284-2.972 6.655-4.17zm-24.791 4.926a8.266 8.266 0 0 1 0-16.531 8.266 8.266 0 0 1 0 16.531zM70 45.322v-3.141c-1.604-.572-2.616-.732-3.13-1.963-.513-1.237.097-2.074.823-3.605L65.47 34.39c-1.516.724-2.365 1.336-3.602.826-1.236-.51-1.397-1.531-1.965-3.13h-3.139c-.566 1.59-.729 2.617-1.966 3.13-1.236.513-2.073-.096-3.602-.826l-2.222 2.223c.723 1.525 1.336 2.368.822 3.605-.513 1.237-1.54 1.397-3.13 1.963v3.141c1.587.563 2.617.73 3.13 1.963.517 1.245-.11 2.106-.822 3.605l2.222 2.222c1.52-.723 2.369-1.335 3.602-.825 1.237.51 1.397 1.534 1.966 3.13h3.139c.565-1.59.729-2.617 1.971-3.133h.003c1.228-.51 2.06.1 3.593.828l2.223-2.222c-.72-1.52-1.336-2.368-.823-3.602.514-1.234 1.543-1.403 3.13-1.966zm-11.667 2.316a3.889 3.889 0 1 1 .002-7.777 3.889 3.889 0 0 1-.002 7.777zm-11.666 8.957v-2.357c-1.202-.428-1.963-.548-2.348-1.473-.385-.924.07-1.554.618-2.703l-1.668-1.666c-1.135.543-1.77 1.004-2.701.619-.93-.385-1.047-1.15-1.476-2.348h-2.354c-.425 1.193-.548 1.963-1.475 2.348-.925.385-1.555-.07-2.701-.619l-1.669 1.666c.546 1.146 1.004 1.776.619 2.703-.385.928-1.155 1.047-2.348 1.473v2.357c1.19.423 1.963.548 2.348 1.473.388.933-.082 1.58-.619 2.704l1.669 1.665c1.137-.542 1.773-1.003 2.7-.618.928.385 1.048 1.152 1.476 2.348h2.354c.426-1.193.548-1.963 1.479-2.348h.003c.919-.382 1.543.073 2.695.621l1.668-1.665c-.542-1.14-1.003-1.777-.618-2.704.385-.928 1.158-1.053 2.348-1.476zm-8.75 1.738a2.916 2.916 0 1 1 0-5.833 2.916 2.916 0 1 1 0 5.833z" fill="#FFF" fill-rule="nonzero" fill-opacity=".8"/>
</svg>
