<svg width="70" height="70" viewBox="0 0 70 70" xmlns="http://www.w3.org/2000/svg">
    <path d="m63.74 39.909 5.828.464a34.83 34.83 0 0 1-1.901 7.175l-5.25-2.64a28.909 28.909 0 0 0 1.324-5zm-7.43 22.826-4.122-4.21a29.008 29.008 0 0 1-4.535 2.722l1.95 5.539a34.796 34.796 0 0 0 6.706-4.051zm3.575-12.568a29.433 29.433 0 0 1-3.351 4.456l4.095 4.18a35.11 35.11 0 0 0 4.489-6.003l-5.233-2.633zM0 35c0 19.329 15.677 35 35.012 35 3.153 0 6.195-.455 9.1-1.237l-1.94-5.524c-2.295.584-4.687.928-7.16.928C18.923 64.167 5.836 51.083 5.836 35c0-16.082 13.087-29.167 29.176-29.167 6.518 0 12.52 2.17 17.38 5.802l-5.98 5.976 20.461 3.949-3.952-20.455-6.37 6.367C50.613 2.813 43.15 0 35.011 0 15.678 0 0 15.671 0 35zm69.338-6.88h-6.055c.475 1.927.761 3.92.84 5.97l5.877.47a35.421 35.421 0 0 0-.662-6.44zM43.073 43.75v-4.139h-7.566v-3.777l7.94-10.654h3.756v10.76h2.38v3.671h-2.377v4.139h-4.133zm0-7.814v-4.944l-3.683 4.944h3.683zM20.417 43.75c0-2.803.802-4.985 3.599-7.055 3.293-2.439 5.804-3.398 5.804-5.656 0-1.493-.898-2.42-2.345-2.42-2.013 0-2.494 2.108-2.494 4.115h-4.144c-.175-5.198 2.773-7.913 6.819-7.913 3.754 0 6.475 2.496 6.475 5.938 0 1.718-.534 3.08-1.68 4.285-1.811 1.91-4.527 2.873-6.309 4.906h8.09v3.8H20.418z" fill="#FFF" fill-rule="nonzero" fill-opacity=".8"/>
</svg>
