<svg id="Layer_1" data-name="Layer 1" xmlns="http://www.w3.org/2000/svg" viewBox="0 0 41 41"><defs><style>.cls-1{fill:#fff;}</style></defs><title>아이콘</title><path d="M30.53,40.5H10.47a10,10,0,0,1-10-10V10.47a10,10,0,0,1,10-10H30.53a10,10,0,0,1,10,10V30.52a10,10,0,0,1-10,10Z"/><path class="cls-1" d="M20.5,15.45a5.05,5.05,0,1,0,5.05,5.05,5.06,5.06,0,0,0-5.05-5.05Zm0,12.62a7.57,7.57,0,1,1,7.57-7.57,7.58,7.58,0,0,1-7.57,7.57Z"/><path class="cls-1" d="M13.46,8.28a5.18,5.18,0,0,0-5.17,5.17V27.54a5.18,5.18,0,0,0,5.17,5.17H27.54a5.18,5.18,0,0,0,5.17-5.17V13.45a5.18,5.18,0,0,0-5.17-5.17Zm14.09,27H13.46a7.7,7.7,0,0,1-7.7-7.69V13.45a7.7,7.7,0,0,1,7.7-7.69H27.54a7.7,7.7,0,0,1,7.7,7.69V27.54a7.7,7.7,0,0,1-7.7,7.69Z"/><path class="cls-1" d="M30,12.58a1.74,1.74,0,1,1-1.74-1.74A1.74,1.74,0,0,1,30,12.58Z"/></svg>