<svg width="50" height="60" viewBox="0 0 50 60" xmlns="http://www.w3.org/2000/svg">
    <path d="M27.5 42.5h10V45h-10v-2.5zm0-2.5h10v-2.5h-10V40zM50 5v55H0V5h7.5c3.075 0 5.453-2.71 7.5-5h20c2.05 2.29 4.428 5 7.5 5H50zM22.5 7.5a2.5 2.5 0 1 0 5.002-.002A2.5 2.5 0 0 0 22.5 7.5zM45 10H35l-5 5h-9.742L15 10H5v45h40V10zM27.5 32.5h10V30h-10v2.5zm0-5h10V25h-10v2.5zm-16.25.192.965-.887c1.123.545 1.838.957 3.103 1.863 2.38-2.703 3.95-4.068 6.87-5.888l.312.72c-2.407 2.102-4.172 4.442-6.715 9-1.565-1.845-2.61-3.02-4.535-4.808zm.245 12.5.965-.887c1.122.545 1.837.958 3.102 1.862 2.38-2.702 3.95-4.067 6.87-5.887l.313.722c-2.408 2.103-4.172 4.443-6.715 9-1.568-1.847-2.613-3.022-4.535-4.81z" fill="#EEE" fill-rule="nonzero"/>
</svg>
