<svg width="67" height="50" viewBox="0 0 67 50" xmlns="http://www.w3.org/2000/svg">
    <path d="M13.889 41.667H11.11a2.779 2.779 0 0 1-2.778-2.778v-5.556h33.334v-25H54.63c3.102 0 4.444 1.6 5.377 3.075 1.65 2.611 4.267 6.756 5.859 9.384.522.866.8 1.86.8 2.875V36.11c0 3.114-2.023 5.556-5.556 5.556h-2.778C58.333 46.267 54.6 50 50 50a8.336 8.336 0 0 1-8.333-8.333H30.556c0 4.6-3.734 8.333-8.334 8.333a8.336 8.336 0 0 1-8.333-8.333zm8.333-3.334a3.336 3.336 0 0 1 3.334 3.334A3.336 3.336 0 0 1 22.222 45a3.336 3.336 0 0 1-3.333-3.333 3.336 3.336 0 0 1 3.333-3.334zm27.778 0a3.336 3.336 0 0 1 3.333 3.334A3.336 3.336 0 0 1 50 45a3.336 3.336 0 0 1-3.333-3.333A3.336 3.336 0 0 1 50 38.333zM22.222 13.89H0V8.333h22.222V5.556H8.333V2.778A2.779 2.779 0 0 1 11.111 0h25a2.779 2.779 0 0 1 2.778 2.778v27.778H8.333v-8.334H2.778v-5.555h19.444v-2.778zm25 0v8.333H60.32l-3.963-6.933a2.774 2.774 0 0 0-2.412-1.4h-6.722z" fill="#EEE" fill-rule="evenodd"/>
</svg>
