<svg id="Layer_1" data-name="Layer 1" xmlns="http://www.w3.org/2000/svg" viewBox="0 0 127.56 226.77"><defs><style>.cls-1{fill:#231f20;}</style></defs><title>icon</title><path class="cls-1" d="M63.38,104.71a.75.75,0,0,0,.8,0L77.4,96.43v48.65a.75.75,0,0,0,1.5,0v-50a.74.74,0,0,0-.08-.32l0-.07a.73.73,0,0,0-.16-.19l0,0L64.21,84.34a.75.75,0,0,0-.86,0L49,94.46l0,0a.73.73,0,0,0-.16.19l0,.07a.74.74,0,0,0-.08.32v50a.75.75,0,0,0,1.5,0V96.43Zm.4-18.84L76.8,95l-13,8.15L50.76,95Z"/><path class="cls-1" d="M72,148.42a.75.75,0,0,0,.74-.63l.7-4.35a1098.51,1098.51,0,0,0,0-.2.73.73,0,0,0,0-.19s0,0,0-.06v0a.74.74,0,0,0-.39-.36L68.87,141a.75.75,0,0,0-.55,1.4l2.49,1-6.29,3v-12l2.21,1.78a.75.75,0,1,0,.94-1.17l-3.43-2.76-.11-.06-.09,0a.74.74,0,0,0-.54,0l-.09,0-.11.06L59.88,135a.75.75,0,1,0,.94,1.17L63,134.39v12l-6.29-3,2.49-1a.75.75,0,1,0-.55-1.4l-4.1,1.61a.74.74,0,0,0-.39.36v0s0,0,0,.06a.73.73,0,0,0,0,.19,1098.51,1098.51,0,0,0,0,.2l.7,4.35a.75.75,0,0,0,.74.63h.12a.75.75,0,0,0,.62-.86l-.47-2.93,7.63,3.63h0a.72.72,0,0,0,.61,0h0l7.63-3.63-.47,2.93a.75.75,0,0,0,.62.86Z"/><path class="cls-1" d="M41,201l-2.8-.4a4.09,4.09,0,0,1-2.2-.94,2.29,2.29,0,0,1-.7-1.7c0-1.64,1.2-3,3.67-3a6.62,6.62,0,0,1,4.87,1.64l2.94-2.9c-2-2-4.41-2.77-7.68-2.77-5.14,0-8.28,3-8.28,7.21a6.28,6.28,0,0,0,1.7,4.67,8.06,8.06,0,0,0,4.61,2l2.87.4a3.54,3.54,0,0,1,2.1.83,2.65,2.65,0,0,1,.73,2c0,1.9-1.47,2.94-4.21,2.94a7.78,7.78,0,0,1-5.74-2l-3,3c2.34,2.37,5.07,3.14,8.68,3.14,5,0,8.81-2.6,8.81-7.21a6.66,6.66,0,0,0-1.84-5A7.86,7.86,0,0,0,41,201Z"/><path class="cls-1" d="M55.62,209.65V191.12H51.28v18.8a4.73,4.73,0,0,0,5.07,5h2.47v-3.67H57.15C56,211.22,55.62,210.69,55.62,209.65Z"/><rect class="cls-1" x="62.23" y="190.99" width="4.44" height="3.54"/><rect class="cls-1" x="62.29" y="197.5" width="4.34" height="17.39"/><path class="cls-1" d="M94.14,198.83a6.07,6.07,0,0,0-4.27-1.54,6.63,6.63,0,0,0-5.21,2.2,5.39,5.39,0,0,0-4.61-2.2,6.09,6.09,0,0,0-4.34,1.8v-1.6H71.48v17.39h4.34V204.38a2.82,2.82,0,0,1,2.9-3.17c1.37,0,2.87.8,2.87,3.17v10.52h4.34V204.28a2.8,2.8,0,0,1,2.9-3.07c1.37,0,2.87.8,2.87,3.17v10.52H96V203.78A6.56,6.56,0,0,0,94.14,198.83Z"/></svg>