<?xml version="1.0" encoding="utf-8"?>
<!-- Generator: Adobe Illustrator 21.0.0, SVG Export Plug-In . SVG Version: 6.00 Build 0)  -->
<svg version="1.1" id="Layer_1" xmlns="http://www.w3.org/2000/svg" xmlns:xlink="http://www.w3.org/1999/xlink" x="0px" y="0px"
	 viewBox="0 0 113.4 226.8" style="enable-background:new 0 0 113.4 226.8;" xml:space="preserve">
<style type="text/css">
	.st0{fill:#231F20;}
</style>
<title>icon</title>
<path class="st0" d="M27.5,135.8c0.4,0,0.8-0.3,0.8-0.8V89.6l28.1,14.6c0.2,0.1,0.5,0.1,0.7,0l28.1-14.6v45.5c0,0.4,0.3,0.8,0.8,0.8
	s0.8-0.3,0.8-0.8V88.4l0,0c0,0,0-0.1,0-0.1c0,0,0-0.1,0-0.1c-0.1-0.2-0.2-0.3-0.3-0.4L57.1,70.6c-0.2-0.1-0.5-0.1-0.8,0L27.1,87.7
	c-0.1,0.1-0.2,0.2-0.3,0.4c0,0,0,0.1,0,0.1c0,0,0,0.1,0,0.1l0,0V135C26.8,135.4,27.1,135.8,27.5,135.8z M56.7,72.1l27.6,16.2
	l-27.6,14.4L29.1,88.3L56.7,72.1z"/>
<path class="st0" d="M80.4,135.4c0-0.3-0.2-0.5-0.5-0.6l-7.3-2.9c-0.4-0.2-0.8,0-1,0.4c-0.2,0.4,0,0.8,0.4,1l5.8,2.3l-20.5,11.1v-32
	l5.4,4.2c0.3,0.3,0.8,0.3,1.1-0.1c0.3-0.3,0.3-0.8-0.1-1.1c0,0-0.1,0-0.1-0.1l-6.6-5.1l-0.1-0.1H57c-0.2-0.1-0.4-0.1-0.5,0h-0.1
	l-0.1,0.1l-6.6,5.1c-0.3,0.2-0.4,0.7-0.2,1c0.2,0.3,0.7,0.4,1,0.2c0,0,0.1,0,0.1-0.1l5.3-4.2v32l-19.2-11.2l6.2-2.4
	c0.4-0.2,0.6-0.6,0.4-1c-0.2-0.4-0.6-0.6-1-0.4l-7.7,3c-0.1,0-0.1,0.1-0.2,0.1l0,0c-0.2,0.1-0.3,0.3-0.3,0.5c0,0.1,0,0.1,0,0.2
	l1.3,8.2c0.1,0.4,0.4,0.6,0.7,0.6h0.1c0.4-0.1,0.7-0.5,0.6-0.9l-1.1-6.6l20.4,11.8l0,0c0.2,0.1,0.5,0.1,0.7,0l0,0l21.6-11.7l-1,6.2
	c-0.1,0.4,0.2,0.8,0.6,0.9h0.1c0.4,0,0.7-0.3,0.7-0.6l1.2-7.6l0,0v-0.1C80.3,135.5,80.3,135.5,80.4,135.4
	C80.3,135.4,80.3,135.4,80.4,135.4z"/>
<path class="st0" d="M24.2,201l-2.8-0.4c-0.8-0.1-1.6-0.4-2.2-0.9c-0.5-0.4-0.7-1.1-0.7-1.7c0-1.6,1.2-3,3.7-3
	c1.8-0.1,3.5,0.5,4.9,1.6l2.9-2.9c-2-2-4.4-2.8-7.7-2.8c-5.1,0-8.3,3-8.3,7.2c-0.1,1.7,0.5,3.4,1.7,4.7c1.3,1.1,2.9,1.8,4.6,2
	l2.9,0.4c0.8,0,1.5,0.3,2.1,0.8c0.5,0.5,0.8,1.3,0.7,2c0,1.9-1.5,2.9-4.2,2.9c-2.1,0.1-4.2-0.6-5.7-2l-3,3c2.3,2.4,5.1,3.1,8.7,3.1
	c5,0,8.8-2.6,8.8-7.2c0.1-1.9-0.6-3.7-1.8-5C27.5,201.8,25.9,201.1,24.2,201z"/>
<path class="st0" d="M53,197.3c-2-0.1-3.9,0.7-5.2,2.2c-1.1-1.5-2.8-2.3-4.6-2.2c-1.6,0-3.2,0.6-4.3,1.8v-1.6h-4.2v17.4h4.3v-10.5
	c-0.2-1.5,0.9-3,2.4-3.2c0.2,0,0.3,0,0.5,0c1.4,0,2.9,0.8,2.9,3.2v10.5H49v-10.6c-0.2-1.5,1-2.9,2.5-3.1c0.1,0,0.3,0,0.4,0
	c1.4,0,2.9,0.8,2.9,3.2v10.5h4.3v-11.1c0.1-1.8-0.6-3.6-1.9-4.9C56.1,197.8,54.6,197.2,53,197.3z"/>
<path class="st0" d="M69.6,197.3c-2.9,0-4.6,0.5-6.3,2.4l2.8,2.7c0.8-1,2.1-1.5,3.3-1.4c2.3,0,3.2,0.8,3.2,2.7v0.9h-4.1
	c-4,0-5.9,2.3-5.9,5c0,1.4,0.5,2.8,1.4,3.9c1.2,1.1,2.8,1.7,4.4,1.5c1.6,0.1,3.2-0.5,4.3-1.7v1.5H77v-11.4
	C77,199.4,74.5,197.3,69.6,197.3z M72.7,208.5c0.1,0.8-0.1,1.6-0.6,2.2c-0.7,0.7-1.7,1-2.7,0.8c-1.7,0-2.5-0.8-2.5-2s0.9-2,2.4-2
	h3.4L72.7,208.5z"/>
<path class="st0" d="M85.9,209.6v-18.5h-4.3v18.8c-0.2,2.6,1.8,4.8,4.4,5c0.2,0,0.4,0,0.6,0h2.5v-3.7h-1.7
	C86.3,211.2,85.9,210.7,85.9,209.6z"/>
<path class="st0" d="M98.2,211.2c-1.1,0-1.5-0.5-1.5-1.6v-18.5h-4.3v18.8c-0.2,2.6,1.8,4.8,4.4,5c0.2,0,0.4,0,0.6,0h2.5v-3.7
	L98.2,211.2z"/>
</svg>
