<svg id="Layer_1" data-name="Layer 1" xmlns="http://www.w3.org/2000/svg" viewBox="0 0 127.56 226.77"><defs><style>.cls-1{fill:#231f20;}</style></defs><title>icon</title><path class="cls-1" d="M112.29,46.54a.71.71,0,0,0-.07-.11.73.73,0,0,0-.14-.15s0-.05-.06-.07L64.17,16.93a.75.75,0,0,0-.78,0L15.55,46.22s0,0-.06.07a.73.73,0,0,0-.14.15.71.71,0,0,0-.07.11.74.74,0,0,0-.08.32v74.27a.75.75,0,0,0,1.5,0v-73L63.42,73.54a.75.75,0,0,0,.72,0l46.73-25.43v73a.75.75,0,0,0,1.5,0V46.86A.74.74,0,0,0,112.29,46.54ZM63.78,72,17.44,46.82,63.78,18.45l46.34,28.36Z"/><path class="cls-1" d="M34.77,122.8a.75.75,0,0,0-1-.42l-10.57,4.15a.74.74,0,0,0-.46.66.72.72,0,0,0,0,.11s0,0,0,.05l1.8,11.21a.75.75,0,0,0,.74.63h.12a.75.75,0,0,0,.62-.86l-1.56-9.7,39,20h0a.7.7,0,0,0,.64,0h0l39.41-20.2-1.46,9.1a.75.75,0,0,0,.62.86h.12a.75.75,0,0,0,.74-.63l1.7-10.56a.73.73,0,0,0,0-.16h0a.74.74,0,0,0-.46-.64l-10-3.91a.75.75,0,0,0-.55,1.4l8.41,3.3L64.53,146.67V87.17l7.79,6.07a.75.75,0,1,0,.92-1.18l-9-7L64.13,85l-.08,0a.74.74,0,0,0-.54,0l-.08,0-.11.06-9,7a.75.75,0,1,0,.92,1.18L63,87.17v59.5L25.27,127.34l9.08-3.57A.75.75,0,0,0,34.77,122.8Z"/><polygon class="cls-1" points="27.19 191.12 22.55 191.12 22.55 214.89 37.97 214.89 37.97 210.75 27.19 210.75 27.19 191.12"/><path class="cls-1" d="M47.15,197.3c-2.91,0-4.57.53-6.28,2.4l2.77,2.7A3.73,3.73,0,0,1,47,201c2.3,0,3.24.83,3.24,2.74v.87H46.12c-4,0-5.94,2.27-5.94,5a5.57,5.57,0,0,0,1.44,3.91A5.93,5.93,0,0,0,46,215.06a5.28,5.28,0,0,0,4.27-1.67v1.5h4.24V203.44C54.56,199.37,52,197.3,47.15,197.3Zm3.07,11.18a2.86,2.86,0,0,1-.63,2.2,3.44,3.44,0,0,1-2.74.83c-1.7,0-2.5-.8-2.5-2s.87-2,2.44-2h3.44Z"/><path class="cls-1" d="M63.48,199.17V197.5H59.24v17.39h4.34V204.41a2.9,2.9,0,0,1,5.11-2.17L72,198.93a5.24,5.24,0,0,0-4.11-1.64A5.89,5.89,0,0,0,63.48,199.17Z"/><path class="cls-1" d="M82.84,199.13a5.09,5.09,0,0,0-4.24-1.84,5.87,5.87,0,0,0-4.17,1.54c-1.64,1.64-1.77,3.84-1.77,6.88s.13,5.27,1.77,6.91a5.78,5.78,0,0,0,4.14,1.54,5.09,5.09,0,0,0,4.14-1.74v1.77a3.29,3.29,0,0,1-3.5,3.61,4.43,4.43,0,0,1-3.41-1.34l-2.7,2.74a8.13,8.13,0,0,0,6.31,2.27c4.67,0,7.65-3,7.65-7.21V197.5H82.84Zm-3,11.12c-2.57,0-2.84-2.24-2.84-4.54s.27-4.51,2.84-4.51,2.87,2.2,2.87,4.51S82.41,210.25,79.84,210.25Z"/><path class="cls-1" d="M98.64,197.3c-4.51,0-7.58,3.21-7.58,8.88,0,7,3.94,8.91,8,8.91a8.28,8.28,0,0,0,6.61-2.74l-2.64-2.57a4.81,4.81,0,0,1-3.94,1.64,3.59,3.59,0,0,1-3.81-3.87h10.88v-1.94C106.22,200.84,103.48,197.3,98.64,197.3Zm-3.3,7.28a4.78,4.78,0,0,1,.4-1.87,3.24,3.24,0,0,1,5.81,0,4.8,4.8,0,0,1,.4,1.87Z"/></svg>