<?xml version="1.0" encoding="utf-8"?>
<!-- Generator: Adobe Illustrator 21.0.0, SVG Export Plug-In . SVG Version: 6.00 Build 0)  -->
<svg version="1.1" id="Layer_1" xmlns="http://www.w3.org/2000/svg" xmlns:xlink="http://www.w3.org/1999/xlink" x="0px" y="0px"
	 viewBox="0 0 113.4 226.8" style="enable-background:new 0 0 113.4 226.8;" xml:space="preserve">
<style type="text/css">
	.st0{fill:#231F20;}
</style>
<title>icon</title>
<path class="st0" d="M56.3,104.7c0.2,0.2,0.6,0.2,0.8,0l13.2-8.3v48.7c0,0.4,0.3,0.8,0.8,0.8s0.8-0.3,0.8-0.8v-50
	c0-0.1,0-0.2-0.1-0.3v-0.1c0-0.1-0.1-0.1-0.2-0.2l0,0L57.1,84.3c-0.3-0.2-0.6-0.2-0.9,0L41.9,94.5l0,0c-0.1,0.1-0.1,0.1-0.2,0.2v0.1
	c-0.1,0.1-0.1,0.2-0.1,0.3v50c0,0.4,0.3,0.8,0.8,0.8s0.8-0.3,0.8-0.8V96.4L56.3,104.7z M56.7,85.9l13,9.1l-13,8.2l-13-8.2L56.7,85.9
	z"/>
<path class="st0" d="M64.9,148.4c0.4,0,0.7-0.3,0.7-0.6l0.7-4.4c0-0.1,0-0.1,0-0.2c0-0.1,0-0.1,0-0.2c0,0,0,0,0-0.1l0,0
	c-0.1-0.2-0.2-0.3-0.4-0.4l-4.2-1.6c-0.4-0.2-0.8,0-1,0.4c-0.2,0.4,0,0.8,0.4,1l2.5,1l-6.3,3v-12l2.2,1.8c0.3,0.3,0.8,0.2,1.1-0.1
	c0.3-0.3,0.2-0.8-0.1-1.1l0,0l-3.4-2.8l-0.1-0.1H57c-0.2-0.1-0.4-0.1-0.5,0h-0.1l-0.1,0.1l-3.4,2.8c-0.3,0.3-0.4,0.7-0.1,1.1
	c0.3,0.3,0.7,0.4,1.1,0.1l2.2-1.8v12l-6.3-3l2.5-1c0.4-0.2,0.6-0.6,0.4-1c-0.2-0.4-0.6-0.6-1-0.4l-4.1,1.6c-0.2,0.1-0.3,0.2-0.4,0.4
	l0,0c0,0,0,0,0,0.1c0,0.1,0,0.1,0,0.2c0,0.1,0,0.1,0,0.2l0.7,4.4c0.1,0.4,0.4,0.6,0.7,0.6h0.1c0.4-0.1,0.7-0.5,0.6-0.9l-0.5-2.9
	l7.6,3.6l0,0c0.2,0.1,0.4,0.1,0.6,0l0,0l7.6-3.6l-0.5,2.9c-0.1,0.4,0.2,0.8,0.6,0.9L64.9,148.4z"/>
<path class="st0" d="M33.9,201l-2.8-0.4c-0.8-0.1-1.6-0.4-2.2-0.9c-0.5-0.4-0.7-1.1-0.7-1.7c0-1.6,1.2-3,3.7-3
	c1.8-0.1,3.5,0.5,4.9,1.6l2.9-2.9c-2-2-4.4-2.8-7.7-2.8c-5.1,0-8.3,3-8.3,7.2c-0.1,1.7,0.5,3.4,1.7,4.7c1.3,1.1,2.9,1.8,4.6,2
	l2.9,0.4c0.8,0,1.5,0.3,2.1,0.8c0.5,0.5,0.8,1.3,0.7,2c0,1.9-1.5,2.9-4.2,2.9c-2.1,0.1-4.2-0.6-5.7-2l-3,3c2.3,2.4,5.1,3.1,8.7,3.1
	c5,0,8.8-2.6,8.8-7.2c0.1-1.9-0.6-3.7-1.8-5C37.2,201.8,35.6,201.1,33.9,201z"/>
<path class="st0" d="M48.5,209.6v-18.5h-4.3v18.8c-0.2,2.6,1.8,4.8,4.4,5c0.2,0,0.4,0,0.6,0h2.5v-3.7h-1.7
	C48.9,211.2,48.5,210.7,48.5,209.6z"/>
<rect x="55.1" y="191" class="st0" width="4.4" height="3.5"/>
<rect x="55.2" y="197.5" class="st0" width="4.3" height="17.4"/>
<path class="st0" d="M87.1,198.8c-1.2-1-2.7-1.6-4.3-1.5c-2-0.1-3.9,0.7-5.2,2.2c-1.1-1.5-2.8-2.3-4.6-2.2c-1.6,0-3.2,0.6-4.3,1.8
	v-1.6h-4.2v17.4h4.3v-10.5c-0.2-1.5,0.9-3,2.4-3.1c0.2,0,0.3,0,0.5,0c1.4,0,2.9,0.8,2.9,3.2v10.5h4.3v-10.6c-0.2-1.5,1-2.9,2.5-3.1
	c0.1,0,0.3,0,0.4,0c1.4,0,2.9,0.8,2.9,3.2v10.5h4.3v-11.1C89,201.9,88.3,200.1,87.1,198.8z"/>
</svg>
