<svg width="60" height="64" viewBox="0 0 60 64" xmlns="http://www.w3.org/2000/svg">
    <path d="M37.657 62.69a29.13 29.13 0 0 1-6.3 1.018l.225-5.383a23.869 23.869 0 0 0 4.342-.699l1.733 5.064zm9.04-52.06a29.289 29.289 0 0 0-5.585-3.074l-1.659 5.085c1.353.593 2.609 1.344 3.82 2.165l3.423-4.176zM1.106 28.99A29.3 29.3 0 0 0 .58 34.54l.056 1.068 5.284-.739-.016-.33c0-1.338.13-2.646.343-3.923l-5.14-1.624zm47.684-16.724-3.38 4.126c1.192 1.02 2.249 2.18 3.223 3.414l4.328-3.21a28.94 28.94 0 0 0-4.17-4.33zm-38.83 9.027c3.838-5.706 10.088-9.689 17.275-10.486v5.133l7.961-7.96L27.236 0v5.446c-9.197.821-17.18 5.896-21.947 13.229l4.672 2.62zm28.484 35.493 1.743 5.09a29.439 29.439 0 0 0 5.563-2.81l-3.3-4.22c-1.257.776-2.612 1.398-4.006 1.94zM1.735 26.4l5.085 1.605a23.676 23.676 0 0 1 1.775-4.432l-4.65-2.606a28.675 28.675 0 0 0-2.21 5.433zm53.639 22.397c2.382-4.222 3.769-9.07 3.769-14.26a29.03 29.03 0 0 0-4.648-15.77l-4.314 3.201c2.28 3.656 3.638 7.95 3.638 12.57 0 4.261-1.176 8.228-3.14 11.695l-4.693-2.561L49.16 54.49 60 51.324l-4.626-2.526zm-26.459 9.586A23.943 23.943 0 0 1 9.111 46.43l4.71-2.726-10.922-2.89L0 51.706l4.512-2.612a29.218 29.218 0 0 0 24.18 14.589l.223-5.3z" fill="#FFF" fill-rule="nonzero" fill-opacity=".8"/>
</svg>
