<svg width="35" height="52" viewBox="0 0 35 52" xmlns="http://www.w3.org/2000/svg">
    <path d="M31.747 15.433C33.843 12.955 35 9.846 35 6.683V0H0v6.683c0 3.163 1.155 6.27 3.253 8.747l6.753 7.978c1.238 1.467 1.246 3.522.02 4.999L3.177 36.63C1.128 39.094 0 42.171 0 45.291v6.736h35v-6.735c0-3.122-1.13-6.196-3.178-8.658l-6.847-8.225c-1.23-1.476-1.22-3.531.02-4.999l6.752-7.977zM30.625 6.5c0 2.387-.794 4.444-2.231 6.144l-2.14 2.53H8.746l-2.14-2.53C5.162 10.943 4.375 8.88 4.375 6.5h26.25zm-2.179 32.89c1.426 1.715 2.179 3.74 2.179 6.133h-2.32C24.062 41.188 17.5 41.188 17.5 41.188s-6.563 0-10.804 4.336H4.375c0-2.394.753-4.42 2.179-6.133l6.844-8.222c.749-.9 1.25-1.921 1.556-2.986h.358v2.168h4.376v-2.168h.356c.308 1.065.807 2.086 1.555 2.983l6.847 8.225zm-13.134-2.539h4.376v2.168h-4.375v-2.168zm0-4.335h4.376v2.168h-4.375v-2.168z" fill="#EEE" fill-rule="nonzero"/>
</svg>
