<svg width="65" height="65" viewBox="0 0 65 65" xmlns="http://www.w3.org/2000/svg">
    <path d="M28.118 41.134a5.432 5.432 0 0 1-3.255 1.086c-2.175 0-3.27-2.657-1.737-4.19a5.396 5.396 0 0 1 3.069-1.532c2.196-.317 3.16-3.04 1.544-4.653-1.614-1.617-4.336-.65-4.653 1.546a5.455 5.455 0 0 1-1.533 3.069c-1.541 1.538-4.193.444-4.193-1.74 0-1.177.382-2.312 1.084-3.255 1.335-1.776.086-4.382-2.194-4.382s-3.529 2.603-2.196 4.382a5.447 5.447 0 0 1 1.083 3.256c0 2.18-2.652 3.277-4.193 1.736a5.38 5.38 0 0 1-1.533-3.069c-.316-2.196-3.038-3.16-4.652-1.546-1.617 1.614-.65 4.336 1.543 4.653a5.455 5.455 0 0 1 3.069 1.533c1.54 1.54.447 4.19-1.736 4.19a5.408 5.408 0 0 1-3.256-1.087C2.605 39.804 0 41.053 0 43.333c0 2.278 2.605 3.53 4.382 2.2a5.432 5.432 0 0 1 3.256-1.087c2.18 0 3.277 2.65 1.736 4.19a5.396 5.396 0 0 1-3.069 1.533c-2.196.317-3.16 3.039-1.544 4.653 1.614 1.617 4.336.65 4.653-1.546a5.455 5.455 0 0 1 1.533-3.069c1.541-1.538 4.193-.444 4.193 1.739a5.441 5.441 0 0 1-1.084 3.255c-1.332 1.774-.092 4.382 2.194 4.382 2.272 0 3.537-2.6 2.196-4.387a5.368 5.368 0 0 1-1.083-3.237c0-2.185 2.652-3.293 4.193-1.752a5.396 5.396 0 0 1 1.533 3.071c.316 2.197 3.038 3.161 4.652 1.547 1.615-1.612.656-4.342-1.549-4.653a5.412 5.412 0 0 1-3.052-1.522c-1.55-1.547-.458-4.2 1.725-4.2 1.178 0 2.313.378 3.256 1.085 1.77 1.325 4.379.084 4.379-2.202 0-2.283-2.608-3.529-4.382-2.199zM13.09 46.931a1.34 1.34 0 1 1 0-2.68 1.34 1.34 0 0 1 0 2.68zm1.803-3.598a2.256 2.256 0 1 1 2.26-2.255 2.257 2.257 0 0 1-2.26 2.255zm4.065 2.709a1.804 1.804 0 1 1 0-3.611 1.807 1.807 0 0 1 0 3.61zM65 8.125v31.24C65 51.833 56.325 55.086 40.625 65c-3.57-2.256-6.76-4.157-9.585-5.912 1.557-1.303 2.421-2.858 2.765-4.675 1.98 1.235 4.236 2.606 6.823 4.2 14.39-8.885 18.958-11.009 18.958-19.247V13.433c-6.625-.335-12.187-1.654-18.958-6.543-6.771 4.889-12.334 6.208-18.959 6.543v10.308a8.099 8.099 0 0 0-5.419-2.074V8.125c9.523 0 15.245-.363 24.375-8.125C49.755 7.762 55.477 8.125 65 8.125zM54.167 39.487c0 4.344-1.124 5.234-13.542 12.874v-38.82c4.948 2.99 9.409 4.328 13.542 4.958v20.988z" fill="#EEE" fill-rule="nonzero"/>
</svg>
